<mxfile host="app.diagrams.net" modified="2021-09-08T14:04:17.338Z" agent="5.0 (Windows)" etag="t0bBnUqxnLihQ9ZUGWIf" version="15.0.6" type="github">
  <diagram id="SvJlqrv_Ubx2b7r8ZZ3b" name="Page-1">
    <mxGraphModel dx="1240" dy="669" grid="1" gridSize="10" guides="1" tooltips="1" connect="1" arrows="1" fold="1" page="1" pageScale="1" pageWidth="850" pageHeight="1100" math="0" shadow="0">
      <root>
        <mxCell id="0" />
        <mxCell id="1" parent="0" />
        <mxCell id="EQxsAdqln0tXPdf_CBqu-6" style="edgeStyle=orthogonalEdgeStyle;rounded=0;orthogonalLoop=1;jettySize=auto;html=1;" parent="1" source="EQxsAdqln0tXPdf_CBqu-1" target="EQxsAdqln0tXPdf_CBqu-5" edge="1">
          <mxGeometry relative="1" as="geometry" />
        </mxCell>
        <mxCell id="EQxsAdqln0tXPdf_CBqu-1" value="Mulai" style="rounded=1;whiteSpace=wrap;html=1;arcSize=50;" parent="1" vertex="1">
          <mxGeometry x="170" y="100" width="120" height="40" as="geometry" />
        </mxCell>
        <mxCell id="EQxsAdqln0tXPdf_CBqu-4" value="Selesai" style="rounded=1;whiteSpace=wrap;html=1;arcSize=50;" parent="1" vertex="1">
          <mxGeometry x="415" y="700" width="120" height="40" as="geometry" />
        </mxCell>
        <mxCell id="EQxsAdqln0tXPdf_CBqu-10" style="edgeStyle=orthogonalEdgeStyle;rounded=0;orthogonalLoop=1;jettySize=auto;html=1;" parent="1" source="EQxsAdqln0tXPdf_CBqu-5" target="EQxsAdqln0tXPdf_CBqu-7" edge="1">
          <mxGeometry relative="1" as="geometry" />
        </mxCell>
        <mxCell id="EQxsAdqln0tXPdf_CBqu-5" value="&lt;div&gt;Gulungan kain&lt;/div&gt;&lt;div&gt;Benang&lt;/div&gt;&lt;div&gt;Karet elastis&lt;br&gt;&lt;/div&gt;&lt;div&gt;Plastik&lt;br&gt;&lt;/div&gt;" style="shape=parallelogram;perimeter=parallelogramPerimeter;whiteSpace=wrap;html=1;fixedSize=1;" parent="1" vertex="1">
          <mxGeometry x="150" y="180" width="160" height="80" as="geometry" />
        </mxCell>
        <mxCell id="EQxsAdqln0tXPdf_CBqu-12" value="" style="edgeStyle=orthogonalEdgeStyle;rounded=0;orthogonalLoop=1;jettySize=auto;html=1;" parent="1" source="EQxsAdqln0tXPdf_CBqu-7" target="EQxsAdqln0tXPdf_CBqu-11" edge="1">
          <mxGeometry relative="1" as="geometry" />
        </mxCell>
        <mxCell id="EQxsAdqln0tXPdf_CBqu-7" value="Membuat pola pada kain" style="rounded=0;whiteSpace=wrap;html=1;" parent="1" vertex="1">
          <mxGeometry x="170" y="300" width="120" height="60" as="geometry" />
        </mxCell>
        <mxCell id="EQxsAdqln0tXPdf_CBqu-14" value="" style="edgeStyle=orthogonalEdgeStyle;rounded=0;orthogonalLoop=1;jettySize=auto;html=1;" parent="1" source="EQxsAdqln0tXPdf_CBqu-11" target="EQxsAdqln0tXPdf_CBqu-13" edge="1">
          <mxGeometry relative="1" as="geometry" />
        </mxCell>
        <mxCell id="EQxsAdqln0tXPdf_CBqu-11" value="Memotong kain" style="whiteSpace=wrap;html=1;rounded=0;" parent="1" vertex="1">
          <mxGeometry x="170" y="400" width="120" height="60" as="geometry" />
        </mxCell>
        <mxCell id="EQxsAdqln0tXPdf_CBqu-16" value="" style="edgeStyle=orthogonalEdgeStyle;rounded=0;orthogonalLoop=1;jettySize=auto;html=1;" parent="1" source="EQxsAdqln0tXPdf_CBqu-13" target="EQxsAdqln0tXPdf_CBqu-15" edge="1">
          <mxGeometry relative="1" as="geometry" />
        </mxCell>
        <mxCell id="EQxsAdqln0tXPdf_CBqu-13" value="Menjahit kain" style="whiteSpace=wrap;html=1;rounded=0;" parent="1" vertex="1">
          <mxGeometry x="170" y="500" width="120" height="60" as="geometry" />
        </mxCell>
        <mxCell id="EQxsAdqln0tXPdf_CBqu-24" style="edgeStyle=orthogonalEdgeStyle;rounded=0;orthogonalLoop=1;jettySize=auto;html=1;" parent="1" source="EQxsAdqln0tXPdf_CBqu-15" target="EQxsAdqln0tXPdf_CBqu-22" edge="1">
          <mxGeometry relative="1" as="geometry" />
        </mxCell>
        <mxCell id="EQxsAdqln0tXPdf_CBqu-15" value="Memasang karet elastis" style="whiteSpace=wrap;html=1;rounded=0;" parent="1" vertex="1">
          <mxGeometry x="170" y="600" width="120" height="60" as="geometry" />
        </mxCell>
        <mxCell id="EQxsAdqln0tXPdf_CBqu-22" value="A" style="ellipse;whiteSpace=wrap;html=1;aspect=fixed;" parent="1" vertex="1">
          <mxGeometry x="210" y="700" width="40" height="40" as="geometry" />
        </mxCell>
        <mxCell id="EQxsAdqln0tXPdf_CBqu-34" style="edgeStyle=orthogonalEdgeStyle;rounded=0;orthogonalLoop=1;jettySize=auto;html=1;" parent="1" source="EQxsAdqln0tXPdf_CBqu-25" target="EQxsAdqln0tXPdf_CBqu-26" edge="1">
          <mxGeometry relative="1" as="geometry" />
        </mxCell>
        <mxCell id="EQxsAdqln0tXPdf_CBqu-25" value="A" style="ellipse;whiteSpace=wrap;html=1;aspect=fixed;" parent="1" vertex="1">
          <mxGeometry x="455" y="100" width="40" height="40" as="geometry" />
        </mxCell>
        <mxCell id="EQxsAdqln0tXPdf_CBqu-32" style="edgeStyle=orthogonalEdgeStyle;rounded=0;orthogonalLoop=1;jettySize=auto;html=1;entryX=0;entryY=0.5;entryDx=0;entryDy=0;" parent="1" source="EQxsAdqln0tXPdf_CBqu-26" target="EQxsAdqln0tXPdf_CBqu-31" edge="1">
          <mxGeometry relative="1" as="geometry" />
        </mxCell>
        <mxCell id="EQxsAdqln0tXPdf_CBqu-48" style="edgeStyle=orthogonalEdgeStyle;rounded=0;orthogonalLoop=1;jettySize=auto;html=1;entryX=0.5;entryY=0;entryDx=0;entryDy=0;" parent="1" source="EQxsAdqln0tXPdf_CBqu-26" target="EQxsAdqln0tXPdf_CBqu-46" edge="1">
          <mxGeometry relative="1" as="geometry" />
        </mxCell>
        <mxCell id="EQxsAdqln0tXPdf_CBqu-26" value="&lt;div&gt;Terdapat sisa benang &lt;br&gt;&lt;/div&gt;&lt;div&gt;pada pakaian?&lt;/div&gt;" style="rhombus;whiteSpace=wrap;html=1;" parent="1" vertex="1">
          <mxGeometry x="387.5" y="185" width="175" height="70" as="geometry" />
        </mxCell>
        <mxCell id="EQxsAdqln0tXPdf_CBqu-35" style="edgeStyle=orthogonalEdgeStyle;rounded=0;orthogonalLoop=1;jettySize=auto;html=1;" parent="1" source="EQxsAdqln0tXPdf_CBqu-31" edge="1">
          <mxGeometry relative="1" as="geometry">
            <mxPoint x="480" y="300" as="targetPoint" />
            <Array as="points">
              <mxPoint x="680" y="300" />
            </Array>
          </mxGeometry>
        </mxCell>
        <mxCell id="EQxsAdqln0tXPdf_CBqu-31" value="Memotong benang yang tersisa" style="rounded=0;whiteSpace=wrap;html=1;" parent="1" vertex="1">
          <mxGeometry x="620" y="190" width="120" height="60" as="geometry" />
        </mxCell>
        <mxCell id="EQxsAdqln0tXPdf_CBqu-36" value="&lt;font style=&quot;font-size: 12px&quot;&gt;Ya&lt;/font&gt;" style="text;html=1;strokeColor=none;fillColor=none;align=center;verticalAlign=middle;whiteSpace=wrap;rounded=0;" parent="1" vertex="1">
          <mxGeometry x="562.5" y="200" width="40" height="20" as="geometry" />
        </mxCell>
        <mxCell id="EQxsAdqln0tXPdf_CBqu-59" style="edgeStyle=orthogonalEdgeStyle;rounded=0;orthogonalLoop=1;jettySize=auto;html=1;" parent="1" source="EQxsAdqln0tXPdf_CBqu-37" target="EQxsAdqln0tXPdf_CBqu-4" edge="1">
          <mxGeometry relative="1" as="geometry" />
        </mxCell>
        <mxCell id="EQxsAdqln0tXPdf_CBqu-37" value="Mengemas pakaian dengan plastik" style="rounded=0;whiteSpace=wrap;html=1;" parent="1" vertex="1">
          <mxGeometry x="415" y="600" width="120" height="60" as="geometry" />
        </mxCell>
        <mxCell id="EQxsAdqln0tXPdf_CBqu-39" value="Tidak" style="text;html=1;strokeColor=none;fillColor=none;align=center;verticalAlign=middle;whiteSpace=wrap;rounded=0;" parent="1" vertex="1">
          <mxGeometry x="480" y="260" width="40" height="20" as="geometry" />
        </mxCell>
        <mxCell id="EQxsAdqln0tXPdf_CBqu-45" style="edgeStyle=orthogonalEdgeStyle;rounded=0;orthogonalLoop=1;jettySize=auto;html=1;" parent="1" source="EQxsAdqln0tXPdf_CBqu-43" target="EQxsAdqln0tXPdf_CBqu-37" edge="1">
          <mxGeometry relative="1" as="geometry" />
        </mxCell>
        <mxCell id="EQxsAdqln0tXPdf_CBqu-51" style="edgeStyle=orthogonalEdgeStyle;rounded=0;orthogonalLoop=1;jettySize=auto;html=1;entryX=0;entryY=0.5;entryDx=0;entryDy=0;" parent="1" source="EQxsAdqln0tXPdf_CBqu-43" target="EQxsAdqln0tXPdf_CBqu-50" edge="1">
          <mxGeometry relative="1" as="geometry" />
        </mxCell>
        <mxCell id="EQxsAdqln0tXPdf_CBqu-43" value="&lt;div&gt;Pakaian membutuhkan&lt;/div&gt;&lt;div&gt;border?&lt;br&gt;&lt;/div&gt;" style="rhombus;whiteSpace=wrap;html=1;" parent="1" vertex="1">
          <mxGeometry x="387.5" y="439.94" width="175" height="70" as="geometry" />
        </mxCell>
        <mxCell id="EQxsAdqln0tXPdf_CBqu-49" style="edgeStyle=orthogonalEdgeStyle;rounded=0;orthogonalLoop=1;jettySize=auto;html=1;" parent="1" source="EQxsAdqln0tXPdf_CBqu-46" target="EQxsAdqln0tXPdf_CBqu-43" edge="1">
          <mxGeometry relative="1" as="geometry" />
        </mxCell>
        <mxCell id="EQxsAdqln0tXPdf_CBqu-46" value="Melipat pakaian" style="rounded=0;whiteSpace=wrap;html=1;" parent="1" vertex="1">
          <mxGeometry x="415" y="320" width="120" height="60" as="geometry" />
        </mxCell>
        <mxCell id="EQxsAdqln0tXPdf_CBqu-58" style="edgeStyle=orthogonalEdgeStyle;rounded=0;orthogonalLoop=1;jettySize=auto;html=1;" parent="1" source="EQxsAdqln0tXPdf_CBqu-50" edge="1">
          <mxGeometry relative="1" as="geometry">
            <mxPoint x="480" y="549.94" as="targetPoint" />
            <Array as="points">
              <mxPoint x="680" y="549.94" />
              <mxPoint x="480" y="549.94" />
            </Array>
          </mxGeometry>
        </mxCell>
        <mxCell id="EQxsAdqln0tXPdf_CBqu-50" value="Memasang border pada pakaian" style="rounded=0;whiteSpace=wrap;html=1;" parent="1" vertex="1">
          <mxGeometry x="620" y="444.94" width="120" height="60" as="geometry" />
        </mxCell>
        <mxCell id="EQxsAdqln0tXPdf_CBqu-53" value="&lt;font style=&quot;font-size: 12px&quot;&gt;Ya&lt;/font&gt;" style="text;html=1;strokeColor=none;fillColor=none;align=center;verticalAlign=middle;whiteSpace=wrap;rounded=0;" parent="1" vertex="1">
          <mxGeometry x="570" y="454.94" width="40" height="20" as="geometry" />
        </mxCell>
        <mxCell id="EQxsAdqln0tXPdf_CBqu-55" value="Tidak" style="text;html=1;strokeColor=none;fillColor=none;align=center;verticalAlign=middle;whiteSpace=wrap;rounded=0;" parent="1" vertex="1">
          <mxGeometry x="480" y="519.94" width="40" height="20" as="geometry" />
        </mxCell>
        <mxCell id="FsdDRmOEKdoUIaEoxOmk-4" style="edgeStyle=orthogonalEdgeStyle;rounded=0;orthogonalLoop=1;jettySize=auto;html=1;exitX=0.5;exitY=1;exitDx=0;exitDy=0;" edge="1" parent="1" source="EQxsAdqln0tXPdf_CBqu-39" target="EQxsAdqln0tXPdf_CBqu-39">
          <mxGeometry relative="1" as="geometry" />
        </mxCell>
      </root>
    </mxGraphModel>
  </diagram>
</mxfile>
